<svg xmlns="http://www.w3.org/2000/svg" version="1.1" xmlns:xlink="http://www.w3.org/1999/xlink" xmlns:svgjs="http://svgjs.dev/svgjs" width="1000" height="1000" viewBox="0 0 1000 1000"><rect width="1000" height="1000" fill="#ffffff"></rect><g transform="matrix(0.7,0,0,0.7,149.57575757575756,431.8599332533666)"><svg viewBox="0 0 396 77" data-background-color="#000000" preserveAspectRatio="xMidYMid meet" height="194" width="1000" xmlns="http://www.w3.org/2000/svg" xmlns:xlink="http://www.w3.org/1999/xlink"><g id="tight-bounds" transform="matrix(1,0,0,1,0.2400000000000091,0.136120320256083)"><svg viewBox="0 0 395.52 76.72775935948785" height="76.72775935948785" width="395.52"><g><svg viewBox="0 0 395.52 76.72775935948785" height="76.72775935948785" width="395.52"><g><svg viewBox="0 0 395.52 76.72775935948785" height="76.72775935948785" width="395.52"><g><svg viewBox="0 0 606.6250557110709 117.68047455510457" height="76.72775935948785" width="395.52"><g><svg viewBox="0 0 395.52 117.68047455510457" height="117.68047455510457" width="395.52"><g><svg viewBox="0 0 395.52 117.68047455510457" height="117.68047455510457" width="395.52"><g><svg viewBox="0 0 395.52 117.68047455510457" height="117.68047455510457" width="395.52"><g transform="matrix(1,0,0,1,0,0)"><svg width="395.52" viewBox="0.75 -36.5 160.13999938964844 47.650001525878906" height="117.68047455510457" data-palette-color="#e06f53"><path d="M30.05-35.5L30.05-30.55 18.25-30.55 18.25 0 12.6 0 12.6-30.55 0.75-30.55 0.75-35.5 30.05-35.5ZM57.55-15.95L57.55 0 52.05 0 52.05-14.65Q52.05-18.2 50.75-19.95 49.45-21.7 47.1-21.7L47.1-21.7Q45.65-21.7 44.1-20.9 42.55-20.1 41.35-18.73 40.15-17.35 39.6-15.55L39.6-15.55 39.6 0 34.1 0 34.1-36.5 39.6-36.5 39.6-20.9Q41.1-23.55 43.7-25.08 46.3-26.6 49.3-26.6L49.3-26.6Q51.75-26.6 53.35-25.75 54.95-24.9 55.87-23.43 56.8-21.95 57.17-20.03 57.55-18.1 57.55-15.95L57.55-15.95ZM69.45 0L63.95 0 63.95-26.15 69.45-26.15 69.45 0ZM69.45-30.45L63.95-30.45 63.95-36.5 69.45-36.5 69.45-30.45ZM74.14-7.65L74.14-7.65Q74.14-10.15 75.57-12.03 76.99-13.9 79.49-14.93 81.99-15.95 85.29-15.95L85.29-15.95Q87.04-15.95 88.87-15.7 90.69-15.45 92.09-14.9L92.09-14.9 92.09-16.55Q92.09-19.3 90.44-20.85 88.79-22.4 85.69-22.4L85.69-22.4Q83.49-22.4 81.54-21.63 79.59-20.85 77.39-19.45L77.39-19.45 75.54-23.15Q78.14-24.9 80.77-25.75 83.39-26.6 86.29-26.6L86.29-26.6Q91.54-26.6 94.57-23.83 97.59-21.05 97.59-15.95L97.59-15.95 97.59-6.2Q97.59-5.25 97.92-4.85 98.24-4.45 99.04-4.4L99.04-4.4 99.04 0Q98.29 0.15 97.69 0.2 97.09 0.25 96.69 0.25L96.69 0.25Q94.94 0.25 94.04-0.6 93.14-1.45 92.99-2.6L92.99-2.6 92.84-4.1Q91.14-1.9 88.49-0.7 85.84 0.5 83.14 0.5L83.14 0.5Q80.54 0.5 78.49-0.58 76.44-1.65 75.29-3.5 74.14-5.35 74.14-7.65ZM90.79-6.05L90.79-6.05Q91.39-6.7 91.74-7.35 92.09-8 92.09-8.5L92.09-8.5 92.09-11.5Q90.69-12.05 89.14-12.33 87.59-12.6 86.09-12.6L86.09-12.6Q83.09-12.6 81.22-11.4 79.34-10.2 79.34-8.1L79.34-8.1Q79.34-6.95 79.97-5.9 80.59-4.85 81.77-4.2 82.94-3.55 84.69-3.55L84.69-3.55Q86.49-3.55 88.14-4.25 89.79-4.95 90.79-6.05ZM114.59 0.25L114.59 0.25Q111.94 0.25 109.74-0.83 107.54-1.9 105.97-3.75 104.39-5.6 103.52-8 102.64-10.4 102.64-13.05L102.64-13.05Q102.64-15.85 103.54-18.3 104.44-20.75 106.07-22.63 107.69-24.5 109.89-25.55 112.09-26.6 114.79-26.6L114.79-26.6Q117.94-26.6 120.32-25.1 122.69-23.6 124.24-21.2L124.24-21.2 124.24-26.15 129.09-26.15 129.09-0.75Q129.09 3.05 127.27 5.7 125.44 8.35 122.29 9.75 119.14 11.15 115.19 11.15L115.19 11.15Q110.84 11.15 107.99 9.65 105.14 8.15 103.14 5.55L103.14 5.55 106.24 2.65Q107.74 4.75 110.12 5.85 112.49 6.95 115.19 6.95L115.19 6.95Q117.44 6.95 119.37 6.13 121.29 5.3 122.44 3.58 123.59 1.85 123.59-0.75L123.59-0.75 123.59-4.75Q122.19-2.4 119.74-1.07 117.29 0.25 114.59 0.25ZM116.39-4.2L116.39-4.2Q117.64-4.2 118.79-4.63 119.94-5.05 120.92-5.78 121.89-6.5 122.59-7.43 123.29-8.35 123.59-9.4L123.59-9.4 123.59-16.25Q122.94-17.95 121.74-19.23 120.54-20.5 119.04-21.2 117.54-21.9 115.99-21.9L115.99-21.9Q114.19-21.9 112.77-21.13 111.34-20.35 110.34-19.07 109.34-17.8 108.79-16.2 108.24-14.6 108.24-12.9L108.24-12.9Q108.24-11.1 108.87-9.55 109.49-8 110.59-6.78 111.69-5.55 113.19-4.88 114.69-4.2 116.39-4.2ZM147.44 0.5L147.44 0.5Q144.34 0.5 141.89-0.58 139.44-1.65 137.66-3.55 135.89-5.45 134.94-7.88 133.99-10.3 133.99-13.05L133.99-13.05Q133.99-15.8 134.94-18.25 135.89-20.7 137.66-22.58 139.44-24.45 141.91-25.53 144.39-26.6 147.44-26.6L147.44-26.6Q150.49-26.6 152.96-25.53 155.44-24.45 157.21-22.58 158.99-20.7 159.94-18.25 160.89-15.8 160.89-13.05L160.89-13.05Q160.89-10.3 159.94-7.88 158.99-5.45 157.21-3.55 155.44-1.65 152.96-0.58 150.49 0.5 147.44 0.5ZM139.64-13L139.64-13Q139.64-10.5 140.69-8.5 141.74-6.5 143.49-5.35 145.24-4.2 147.44-4.2L147.44-4.2Q149.59-4.2 151.36-5.38 153.14-6.55 154.19-8.58 155.24-10.6 155.24-13.05L155.24-13.05Q155.24-15.55 154.19-17.55 153.14-19.55 151.36-20.73 149.59-21.9 147.44-21.9L147.44-21.9Q145.24-21.9 143.49-20.7 141.74-19.5 140.69-17.53 139.64-15.55 139.64-13Z" opacity="1" transform="matrix(1,0,0,1,0,0)" fill="#000000" class="undefined-text-0" data-fill-palette-color="primary" id="text-0"></path></svg></g></svg></g></svg></g></svg></g><g transform="matrix(1,0,0,1,423.30153571107087,17.070353491175332)"><svg viewBox="0 0 183.32352 83.5397675727539" height="83.5397675727539" width="183.32352"><g><svg xmlns="http://www.w3.org/2000/svg" xmlns:xlink="http://www.w3.org/1999/xlink" version="1.1" x="0" y="0" viewBox="5 29.493873596191406 90 41.01262664794922" enable-background="new 0 0 100 100" xml:space="preserve" height="83.5397675727539" width="183.32352" class="icon-icon-0" data-fill-palette-color="accent" id="icon-0"><g fill="#755bb4" data-fill-palette-color="accent"><path d="M23.943 30.807L5 50.001l18.942 19.192c1.728 1.751 4.53 1.751 6.258 0.002 1.729-1.75 1.73-4.587 0.002-6.338L18.193 50.695l-3.624 2.289 15.634-15.841c0.864-0.875 1.295-2.021 1.295-3.168 0-1.147-0.433-2.295-1.297-3.17C28.473 29.056 25.671 29.057 23.943 30.807z" fill="#000000" data-fill-palette-color="accent"></path><path d="M76.057 30.808L95 50.001 76.058 69.193c-1.728 1.751-4.53 1.751-6.258 0.002-1.729-1.75-1.73-4.587-0.002-6.338l12.009-12.161 3.624 2.289L69.796 37.144c-0.864-0.875-1.295-2.021-1.295-3.168 0-1.147 0.433-2.295 1.297-3.17C71.527 29.056 74.329 29.057 76.057 30.808z" fill="#000000" data-fill-palette-color="accent"></path><path d="M60.899 32.352c-0.419-1.068-1.241-1.978-2.366-2.476-2.249-0.997-4.857 0.028-5.825 2.288l-13.82 32.062c-0.484 1.13-0.467 2.355-0.048 3.422 0.419 1.068 1.241 1.978 2.366 2.476 2.249 0.997 4.857-0.028 5.825-2.288l13.82-32.062C61.335 34.644 61.318 33.419 60.899 32.352z" fill="#000000" data-fill-palette-color="accent"></path></g></svg></g></svg></g></svg></g></svg></g></svg></g><defs></defs></svg><rect width="395.52" height="76.72775935948785" fill="none" stroke="none" visibility="hidden"></rect></g></svg></g></svg>